<?xml version="1.0" encoding="UTF-8" standalone="no"?>
<!-- Created with Inkscape (http://www.inkscape.org/) -->

<svg
   xmlns:dc="http://purl.org/dc/elements/1.1/"
   xmlns:cc="http://creativecommons.org/ns#"
   xmlns:rdf="http://www.w3.org/1999/02/22-rdf-syntax-ns#"
   xmlns:svg="http://www.w3.org/2000/svg"
   xmlns="http://www.w3.org/2000/svg"
   xmlns:xlink="http://www.w3.org/1999/xlink"
   xmlns:sodipodi="http://sodipodi.sourceforge.net/DTD/sodipodi-0.dtd"
   xmlns:inkscape="http://www.inkscape.org/namespaces/inkscape"
   version="1.0"
   width="600"
   height="660"
   id="svg2"
   inkscape:version="0.91 r13725"
   sodipodi:docname="Blason_Figanieres_83.svg">
  <metadata
     id="metadata97">
    <rdf:RDF>
      <cc:Work
         rdf:about="">
        <dc:format>image/svg+xml</dc:format>
        <dc:type
           rdf:resource="http://purl.org/dc/dcmitype/StillImage" />
        <dc:title></dc:title>
      </cc:Work>
    </rdf:RDF>
  </metadata>
  <sodipodi:namedview
     pagecolor="#ffffff"
     bordercolor="#666666"
     borderopacity="1"
     objecttolerance="10"
     gridtolerance="10"
     guidetolerance="10"
     inkscape:pageopacity="0"
     inkscape:pageshadow="2"
     inkscape:window-width="1069"
     inkscape:window-height="656"
     id="namedview95"
     showgrid="false"
     showguides="true"
     inkscape:guide-bbox="true"
     inkscape:zoom="0.68370279"
     inkscape:cx="586.35366"
     inkscape:cy="328.98439"
     inkscape:window-x="0"
     inkscape:window-y="0"
     inkscape:window-maximized="0"
     inkscape:current-layer="svg2">
    <sodipodi:guide
       position="291.50826,329.2684"
       orientation="0,1"
       id="guide4225" />
  </sodipodi:namedview>
  <desc
     id="desc4">Figanieres 83</desc>
  <defs
     id="defs6">
    <linearGradient
       id="linearGradient2893">
      <stop
         style="stop-color:#ffffff;stop-opacity:0.3137255"
         offset="0"
         id="stop2895" />
      <stop
         style="stop-color:#ffffff;stop-opacity:0.25098041"
         offset="0.19"
         id="stop2897" />
      <stop
         style="stop-color:#6b6b6b;stop-opacity:0.1254902"
         offset="0.60000002"
         id="stop2901" />
      <stop
         style="stop-color:#000000;stop-opacity:0.1254902"
         offset="1"
         id="stop2899" />
    </linearGradient>
    <radialGradient
       cx="221.44487"
       cy="226.33101"
       r="300"
       fx="221.44487"
       fy="226.33101"
       id="radialGradient3163"
       xlink:href="#linearGradient2893"
       gradientUnits="userSpaceOnUse"
       gradientTransform="matrix(1.353218,0,0,1.348928,-78.12935,-85.603585)" />
  </defs>
  <g
     style="display:inline"
     id="layer3">
    <path
       d="M 1.5,218.5 L 1.5,260.71875 C 1.5,546.17026 300,658.5 300,658.5 C 300,658.5 598.5,546.17027 598.5,260.71875 C 598.5,214.10386 598.5,249.93294 598.5,218.5 L 1.5,218.5 z "
       style="fill:#e20909;fill-opacity:1;fill-rule:evenodd;stroke:#000000;stroke-width:3;stroke-linecap:butt;stroke-linejoin:miter;stroke-miterlimit:4;stroke-dasharray:none;stroke-opacity:1"
       id="path2855" />
    <g
       transform="matrix(1.0708222,0,0,0.6291355,-42.038185,217.14171)"
       style="opacity:1;display:inline"
       id="g3678">
      <g
         id="g3680">
        <rect
           width="600"
           height="660"
           x="0"
           y="3.375078e-14"
           style="fill:none;fill-opacity:1;fill-rule:nonzero;stroke:none;stroke-width:7.56018829;stroke-linecap:round;stroke-linejoin:round;stroke-miterlimit:4;stroke-dasharray:none;stroke-opacity:1"
           id="rect3684" />
      </g>
    </g>
    <g
       transform="matrix(1.0708222,0,0,0.6291355,-42.038185,217.14171)"
       style="opacity:1;display:inline"
       id="g3690">
      <g
         id="g3692">
        <path
           d="M 586.94587,223.02251 165.4433,532.68432 C 148.43623,511.45048 121.17623,454.62526 101.82748,408.9247 l 399.4571,-289.81078 94.71684,2.12593 c -1.30713,32.9566 -2.85003,66.04696 -9.05555,101.78266 z"
           style="fill:#ffffff;fill-opacity:1;fill-rule:evenodd;stroke:#000000;stroke-width:3;stroke-linecap:butt;stroke-linejoin:miter;stroke-miterlimit:4;stroke-dasharray:none;stroke-opacity:1"
           id="path3694"
           inkscape:connector-curvature="0"
           sodipodi:nodetypes="cccccc" />
      </g>
    </g>
    <path
       style="fill:#ffffff;fill-opacity:1;stroke:#000000;stroke-width:2;stroke-miterlimit:4;stroke-dasharray:none;stroke-opacity:1"
       d="m 0,0 597.2005,0 0,293.69998 -593.1879967,0.66875 z"
       id="rect2250"
       inkscape:connector-curvature="0"
       sodipodi:nodetypes="ccccc" />
    <g
       transform="matrix(1.2068959,0,0,1.2585973,-65.389895,-380.0785)"
       style="display:inline"
       id="g3748">
      <g
         transform="matrix(0.4844928,0,0,0.4942012,150.50767,216.02829)"
         style="fill:#5ab532;fill-opacity:1"
         id="g25230" />
      <g
         transform="translate(-25.671516,86.472468)"
         style="display:inline"
         id="g7687">
        <g
           id="g7689">
          <path
             d="m 248.75888,315.09028 c 0.46199,-4.40836 2.05258,-8.29882 6.37472,-10.93587 4.4294,3.71198 4.97831,7.65312 5.58422,11.59088 l -0.0263,0.0729 -6.92561,5.25558 -5.00701,-5.98351 z"
             style="display:inline;fill:#5ab532;fill-opacity:1;fill-rule:evenodd;stroke:#000000;stroke-width:2;stroke-linecap:butt;stroke-linejoin:miter;stroke-miterlimit:4;stroke-dasharray:none;stroke-opacity:1"
             id="path1902"
             inkscape:connector-curvature="0" />
          <path
             d="m 296.60605,253.88853 c 0.0323,-0.0562 -0.25412,-3.49775 -1.92441,-5.92021 -4.92766,3.43046 -7.68441,8.78938 -8.74408,11.79653 l -0.0871,0.21342 1.12356,2.71788 10.24682,-1.85282 -0.61484,-6.9548 z"
             style="display:inline;fill:#5ab532;fill-opacity:1;fill-rule:evenodd;stroke:#000000;stroke-width:2;stroke-linecap:butt;stroke-linejoin:miter;stroke-miterlimit:4;stroke-dasharray:none;stroke-opacity:1"
             id="path1892"
             inkscape:connector-curvature="0" />
          <path
             d="m 300.50217,411.47237 c -1.95214,2.32465 -3.85955,4.79242 -5.18754,9.11464 2.57024,-1.4793 4.07937,-0.83932 6.08292,-1.1868 l -1.25059,-7.3454 c -0.7889,2.64473 -2.83031,2.30515 -2.32327,8.03768 2.95972,-1.68749 2.14562,-0.50376 3.17614,-0.72347 l -0.49766,-7.89665 z"
             style="display:inline;fill:#5ab532;fill-opacity:1;fill-rule:evenodd;stroke:#000000;stroke-width:2;stroke-linecap:butt;stroke-linejoin:miter;stroke-miterlimit:4;stroke-dasharray:none;stroke-opacity:1"
             id="path15425"
             inkscape:connector-curvature="0" />
          <path
             d="m 381.2399,224.97558 c -7.30758,1.54193 -13.03594,5.23524 -13.47724,16.10446 -1.74736,-2.18475 -1.64338,-6.86194 -1.90463,-11.0516 -42.62132,25.36242 -22.67328,76.44117 -4.64508,86.3674 19.57807,8.5013 37.73654,52.44417 15.47378,90.20697 l -3.63307,1.57735 c 4.50377,-7.37463 9.13884,-8.82812 6.59234,-37.77978 -4.55048,-27.91102 -12.49799,-32.91128 -22.55819,-41.01459 -5.92877,-5.2779 -11.86092,-10.36662 -17.65982,-21.1756 -8.27877,-11.4018 -12.5265,-12.67147 -18.04773,-16.53342 -9.44093,-5.36696 -25.16734,-1.29848 -19.96049,-20.13121 3.45391,-9.09016 3.01367,-16.792 1.41865,-22.34556 -3.51329,1.25418 -11.49039,7.31709 -11.35544,14.12115 -0.11292,-3.31192 1.31349,-4.68279 1.96982,-6.21537 -46.21875,13.23547 -34.4286,28.23504 -45.07929,34.26529 -2.73998,1.60049 -1.58266,6.77865 2.17203,7.51139 3.8601,3.08983 3.70101,3.12762 9.03009,2.4323 -4.20253,3.19676 7.98188,2.90293 10.86921,3.54613 14.15888,3.6639 20.56591,9.14385 19.27466,12.85488 -1.06336,3.05608 -10.58255,3.50561 -27.40623,-1.05369 -3.06093,-1.83779 -6.1327,-3.60586 -9.2903,-4.50197 0.0767,2.53928 1.56475,2.71705 2.39658,3.99285 l -7.22115,-0.98873 c -1.10933,1.52264 -0.45914,1.98678 -0.38695,2.79824 -0.51676,0.89043 -0.83735,1.87262 -0.23944,3.30376 -0.46513,1.50279 0.0119,2.11714 0.5576,2.66208 0.0184,1.04201 0.23508,1.96188 1.20879,2.39776 2.78054,-0.009 8.1988,-1.28622 13.39838,-0.33563 20.29361,6.89447 32.86868,14.40579 34.87381,14.13877 2.33185,-1.17351 5.00568,-5.54193 7.73624,-9.3891 l -4.77057,6.86113 c 7.69495,8.03882 5.99812,18.31527 9.33152,27.70374 -0.12547,7.81316 -0.29668,20.42752 13.89668,38.12199 -7.48204,0.72173 -15.14626,1.39995 -17.04065,3.15382 -9.22277,5.87632 -9.62164,9.82002 -6.22822,12.93676 6.29185,-1.51879 12.2345,-3.29926 20.52306,-3.29949 33.29904,0.30109 41.03126,3.93558 49.14257,3.88542 8.12722,-0.50225 9.13137,-3.4096 -0.34612,-9.86632 2.239,1.16252 5.00759,1.96857 10.60294,0.78009 13.94634,-8.69765 25.00468,-17.36154 35.79049,-31.37555 7.4708,-11.57171 9.62979,-27.62594 -6.7653,-58.16562 -7.95823,-12.06267 -9.74893,-22.69071 -5.17698,-31.83774 2.91738,6.80006 6.36972,12.88096 10.85121,17.57088 -1.08502,-5.81639 -0.41163,-9.06403 0.83691,-11.46232 1.80963,3.51673 2.82505,7.1568 6.35959,10.42487 7.20172,1.4288 13.4179,-0.6935 19.19068,-2.76653 -1.39054,-8.75988 -2.96521,-29.92424 -24.40089,-51.73425 2.87323,-1.11679 5.98536,-0.61105 9.11483,0.096 -2.05912,-6.70448 -24.57208,-28.54879 -45.01868,-26.79136 z"
             style="fill:#5ab532;fill-opacity:1;fill-rule:evenodd;stroke:#000000;stroke-width:2;stroke-linecap:butt;stroke-linejoin:miter;stroke-miterlimit:4;stroke-dasharray:none;stroke-opacity:1"
             id="path1883"
             inkscape:connector-curvature="0" />
          <path
             d="m 247.89601,318.00715 3.44397,0.31739"
             style="fill:#5ab532;fill-opacity:1;fill-rule:evenodd;stroke:#000000;stroke-width:2;stroke-linecap:butt;stroke-linejoin:miter;stroke-miterlimit:4;stroke-dasharray:none;stroke-opacity:1"
             id="path1894"
             inkscape:connector-curvature="0" />
          <path
             d="m 247.64338,321.26775 3.59564,-0.14272"
             style="fill:#5ab532;fill-opacity:1;fill-rule:evenodd;stroke:#000000;stroke-width:2;stroke-linecap:butt;stroke-linejoin:miter;stroke-miterlimit:4;stroke-dasharray:none;stroke-opacity:1"
             id="path1896"
             inkscape:connector-curvature="0" />
          <path
             d="m 300.57334,337.49007 c 7.2531,7.23068 6.26505,18.6255 9.35295,28.07628"
             style="fill:#5ab532;fill-opacity:1;fill-rule:evenodd;stroke:#000000;stroke-width:2;stroke-linecap:butt;stroke-linejoin:miter;stroke-miterlimit:4;stroke-dasharray:none;stroke-opacity:1"
             id="path1900"
             inkscape:connector-curvature="0" />
          <path
             d="m 269.68349,281.46616 c 0.29092,2.07056 -1.19847,3.99977 -3.32457,4.30626 -2.12608,0.30649 -4.0877,-1.12521 -4.37862,-3.19577 -0.29093,-2.07056 1.19848,-3.99977 3.32456,-4.30626 2.12608,-0.3065 4.08771,1.12521 4.37863,3.19577 z"
             style="display:inline;fill:#5ab532;fill-opacity:1;fill-rule:evenodd;stroke:#000000;stroke-width:2;stroke-linecap:round;stroke-linejoin:round;stroke-miterlimit:4;stroke-dasharray:none;stroke-opacity:1"
             id="path1908"
             inkscape:connector-curvature="0" />
          <path
             d="m 309.99151,364.93089 c 5.49887,-49.27707 56.23184,-22.16503 46.71441,28.9508"
             style="fill:#5ab532;fill-opacity:1;fill-rule:evenodd;stroke:#000000;stroke-width:2;stroke-linecap:butt;stroke-linejoin:miter;stroke-miterlimit:4;stroke-dasharray:none;stroke-opacity:1"
             id="path13639"
             inkscape:connector-curvature="0" />
          <path
             d="m 248.15052,323.7972 3.12689,-0.14088"
             style="fill:#5ab532;fill-opacity:1;fill-rule:evenodd;stroke:#000000;stroke-width:2;stroke-linecap:butt;stroke-linejoin:miter;stroke-miterlimit:4;stroke-dasharray:none;stroke-opacity:1"
             id="path13641"
             inkscape:connector-curvature="0" />
        </g>
      </g>
    </g>
  </g>
  <g
     style="display:inline"
     id="layer4" />
  <g
     id="layer2">
    <path
       d="m 299.50001,658.64335 c 0,0 298.50005,-112.32031 298.50005,-397.77183 0,-285.451509 0,-258.5516885 0,-258.5516885 L 1,2.3198315 1,260.87152 c 0,285.45152 298.50001,397.77183 298.50001,397.77183 z"
       style="opacity:1;fill:url(#radialGradient3163);fill-opacity:1;fill-rule:evenodd;stroke:none;stroke-width:1px;stroke-linecap:butt;stroke-linejoin:miter;stroke-opacity:1"
       id="path2875"
       inkscape:connector-curvature="0" />
  </g>
  <g
     id="layer1">
    <path
       d="M 299.99999,658.50028 C 299.99999,658.50028 1.5,546.17992 1.5,260.72828 C 1.5,-24.723336 1.5,2.1764957 1.5,2.1764957 L 598.49999,2.1764957 L 598.49999,260.72828 C 598.49999,546.17992 299.99999,658.50028 299.99999,658.50028 z "
       style="opacity:1;fill:none;fill-opacity:1;fill-rule:evenodd;stroke:#000000;stroke-width:3.00000048;stroke-linecap:butt;stroke-linejoin:miter;stroke-miterlimit:4;stroke-dasharray:none;stroke-opacity:1"
       id="path1411" />
  </g>
</svg>
